<svg id="visual" viewBox="0 0 2000 600" width="2000" height="600" xmlns="http://www.w3.org/2000/svg" xmlns:xlink="http://www.w3.org/1999/xlink" version="1.1"><path d="M0 279L27.8 281.8C55.7 284.7 111.3 290.3 166.8 288C222.3 285.7 277.7 275.3 333.2 284.2C388.7 293 444.3 321 500 329.2C555.7 337.3 611.3 325.7 666.8 305.5C722.3 285.3 777.7 256.7 833.2 244.8C888.7 233 944.3 238 1000 253.2C1055.7 268.3 1111.3 293.7 1166.8 310.2C1222.3 326.7 1277.7 334.3 1333.2 328.5C1388.7 322.7 1444.3 303.3 1500 287.3C1555.7 271.3 1611.3 258.7 1666.8 248.3C1722.3 238 1777.7 230 1833.2 231.2C1888.7 232.3 1944.3 242.7 1972.2 247.8L2000 253L2000 0L1972.2 0C1944.3 0 1888.7 0 1833.2 0C1777.7 0 1722.3 0 1666.8 0C1611.3 0 1555.7 0 1500 0C1444.3 0 1388.7 0 1333.2 0C1277.7 0 1222.3 0 1166.8 0C1111.3 0 1055.7 0 1000 0C944.3 0 888.7 0 833.2 0C777.7 0 722.3 0 666.8 0C611.3 0 555.7 0 500 0C444.3 0 388.7 0 333.2 0C277.7 0 222.3 0 166.8 0C111.3 0 55.7 0 27.8 0L0 0Z" fill="#f7770f"></path><path d="M0 204L27.8 199C55.7 194 111.3 184 166.8 186.7C222.3 189.3 277.7 204.7 333.2 211.3C388.7 218 444.3 216 500 207.5C555.7 199 611.3 184 666.8 188.5C722.3 193 777.7 217 833.2 217.7C888.7 218.3 944.3 195.7 1000 193.5C1055.7 191.3 1111.3 209.7 1166.8 218.8C1222.3 228 1277.7 228 1333.2 233.5C1388.7 239 1444.3 250 1500 251.2C1555.7 252.3 1611.3 243.7 1666.8 238.5C1722.3 233.3 1777.7 231.7 1833.2 229.7C1888.7 227.7 1944.3 225.3 1972.2 224.2L2000 223L2000 0L1972.2 0C1944.3 0 1888.7 0 1833.2 0C1777.7 0 1722.3 0 1666.8 0C1611.3 0 1555.7 0 1500 0C1444.3 0 1388.7 0 1333.2 0C1277.7 0 1222.3 0 1166.8 0C1111.3 0 1055.7 0 1000 0C944.3 0 888.7 0 833.2 0C777.7 0 722.3 0 666.8 0C611.3 0 555.7 0 500 0C444.3 0 388.7 0 333.2 0C277.7 0 222.3 0 166.8 0C111.3 0 55.7 0 27.8 0L0 0Z" fill="#f98619"></path><path d="M0 213L27.8 211.2C55.7 209.3 111.3 205.7 166.8 206.5C222.3 207.3 277.7 212.7 333.2 206.5C388.7 200.3 444.3 182.7 500 175.2C555.7 167.7 611.3 170.3 666.8 164.8C722.3 159.3 777.7 145.7 833.2 151.7C888.7 157.7 944.3 183.3 1000 190.2C1055.7 197 1111.3 185 1166.8 181.8C1222.3 178.7 1277.7 184.3 1333.2 177.3C1388.7 170.3 1444.3 150.7 1500 147.8C1555.7 145 1611.3 159 1666.8 162.7C1722.3 166.3 1777.7 159.7 1833.2 152.2C1888.7 144.7 1944.3 136.3 1972.2 132.2L2000 128L2000 0L1972.2 0C1944.3 0 1888.7 0 1833.2 0C1777.7 0 1722.3 0 1666.8 0C1611.3 0 1555.7 0 1500 0C1444.3 0 1388.7 0 1333.2 0C1277.7 0 1222.3 0 1166.8 0C1111.3 0 1055.7 0 1000 0C944.3 0 888.7 0 833.2 0C777.7 0 722.3 0 666.8 0C611.3 0 555.7 0 500 0C444.3 0 388.7 0 333.2 0C277.7 0 222.3 0 166.8 0C111.3 0 55.7 0 27.8 0L0 0Z" fill="#fa9424"></path><path d="M0 148L27.8 146.2C55.7 144.3 111.3 140.7 166.8 133.3C222.3 126 277.7 115 333.2 119.3C388.7 123.7 444.3 143.3 500 146.8C555.7 150.3 611.3 137.7 666.8 128.7C722.3 119.7 777.7 114.3 833.2 118.2C888.7 122 944.3 135 1000 142.3C1055.7 149.7 1111.3 151.3 1166.8 147.5C1222.3 143.7 1277.7 134.3 1333.2 133.7C1388.7 133 1444.3 141 1500 144.3C1555.7 147.7 1611.3 146.3 1666.8 147.5C1722.3 148.7 1777.7 152.3 1833.2 144.3C1888.7 136.3 1944.3 116.7 1972.2 106.8L2000 97L2000 0L1972.2 0C1944.3 0 1888.7 0 1833.2 0C1777.7 0 1722.3 0 1666.8 0C1611.3 0 1555.7 0 1500 0C1444.3 0 1388.7 0 1333.2 0C1277.7 0 1222.3 0 1166.8 0C1111.3 0 1055.7 0 1000 0C944.3 0 888.7 0 833.2 0C777.7 0 722.3 0 666.8 0C611.3 0 555.7 0 500 0C444.3 0 388.7 0 333.2 0C277.7 0 222.3 0 166.8 0C111.3 0 55.7 0 27.8 0L0 0Z" fill="#fba230"></path><path d="M0 67L27.8 64.7C55.7 62.3 111.3 57.7 166.8 57.5C222.3 57.3 277.7 61.7 333.2 65.2C388.7 68.7 444.3 71.3 500 74.2C555.7 77 611.3 80 666.8 81.8C722.3 83.7 777.7 84.3 833.2 80.5C888.7 76.7 944.3 68.3 1000 68.5C1055.7 68.7 1111.3 77.3 1166.8 81.8C1222.3 86.3 1277.7 86.7 1333.2 79.8C1388.7 73 1444.3 59 1500 54.7C1555.7 50.3 1611.3 55.7 1666.8 64.8C1722.3 74 1777.7 87 1833.2 92.7C1888.7 98.3 1944.3 96.7 1972.2 95.8L2000 95L2000 0L1972.2 0C1944.3 0 1888.7 0 1833.2 0C1777.7 0 1722.3 0 1666.8 0C1611.3 0 1555.7 0 1500 0C1444.3 0 1388.7 0 1333.2 0C1277.7 0 1222.3 0 1166.8 0C1111.3 0 1055.7 0 1000 0C944.3 0 888.7 0 833.2 0C777.7 0 722.3 0 666.8 0C611.3 0 555.7 0 500 0C444.3 0 388.7 0 333.2 0C277.7 0 222.3 0 166.8 0C111.3 0 55.7 0 27.8 0L0 0Z" fill="#fcaf3c"></path></svg>