<svg id="visual" viewBox="0 0 2000 1000" width="2000" height="1000" xmlns="http://www.w3.org/2000/svg" xmlns:xlink="http://www.w3.org/1999/xlink" version="1.1"><path d="M0 630L41.7 611C83.3 592 166.7 554 250 524C333.3 494 416.7 472 500 496.3C583.3 520.7 666.7 591.3 750 624.3C833.3 657.3 916.7 652.7 1000 616.3C1083.3 580 1166.7 512 1250 486.5C1333.3 461 1416.7 478 1500 506.8C1583.3 535.7 1666.7 576.3 1750 584.7C1833.3 593 1916.7 569 1958.3 557L2000 545L2000 0L1958.3 0C1916.7 0 1833.3 0 1750 0C1666.7 0 1583.3 0 1500 0C1416.7 0 1333.3 0 1250 0C1166.7 0 1083.3 0 1000 0C916.7 0 833.3 0 750 0C666.7 0 583.3 0 500 0C416.7 0 333.3 0 250 0C166.7 0 83.3 0 41.7 0L0 0Z" fill="#f7770f"></path><path d="M0 343L41.7 354.2C83.3 365.3 166.7 387.7 250 401.7C333.3 415.7 416.7 421.3 500 445.5C583.3 469.7 666.7 512.3 750 517.7C833.3 523 916.7 491 1000 477.2C1083.3 463.3 1166.7 467.7 1250 463.7C1333.3 459.7 1416.7 447.3 1500 439.3C1583.3 431.3 1666.7 427.7 1750 436.2C1833.3 444.7 1916.7 465.3 1958.3 475.7L2000 486L2000 0L1958.3 0C1916.7 0 1833.3 0 1750 0C1666.7 0 1583.3 0 1500 0C1416.7 0 1333.3 0 1250 0C1166.7 0 1083.3 0 1000 0C916.7 0 833.3 0 750 0C666.7 0 583.3 0 500 0C416.7 0 333.3 0 250 0C166.7 0 83.3 0 41.7 0L0 0Z" fill="#f88317"></path><path d="M0 274L41.7 298.7C83.3 323.3 166.7 372.7 250 399.3C333.3 426 416.7 430 500 428.5C583.3 427 666.7 420 750 401.7C833.3 383.3 916.7 353.7 1000 340.3C1083.3 327 1166.7 330 1250 348.7C1333.3 367.3 1416.7 401.7 1500 391.3C1583.3 381 1666.7 326 1750 303C1833.3 280 1916.7 289 1958.3 293.5L2000 298L2000 0L1958.3 0C1916.7 0 1833.3 0 1750 0C1666.7 0 1583.3 0 1500 0C1416.7 0 1333.3 0 1250 0C1166.7 0 1083.3 0 1000 0C916.7 0 833.3 0 750 0C666.7 0 583.3 0 500 0C416.7 0 333.3 0 250 0C166.7 0 83.3 0 41.7 0L0 0Z" fill="#f98e20"></path><path d="M0 293L41.7 277.8C83.3 262.7 166.7 232.3 250 221.3C333.3 210.3 416.7 218.7 500 221.3C583.3 224 666.7 221 750 221.5C833.3 222 916.7 226 1000 239C1083.3 252 1166.7 274 1250 271.7C1333.3 269.3 1416.7 242.7 1500 231.2C1583.3 219.7 1666.7 223.3 1750 224.2C1833.3 225 1916.7 223 1958.3 222L2000 221L2000 0L1958.3 0C1916.7 0 1833.3 0 1750 0C1666.7 0 1583.3 0 1500 0C1416.7 0 1333.3 0 1250 0C1166.7 0 1083.3 0 1000 0C916.7 0 833.3 0 750 0C666.7 0 583.3 0 500 0C416.7 0 333.3 0 250 0C166.7 0 83.3 0 41.7 0L0 0Z" fill="#fa9a29"></path><path d="M0 220L41.7 224C83.3 228 166.7 236 250 230.5C333.3 225 416.7 206 500 188.5C583.3 171 666.7 155 750 164C833.3 173 916.7 207 1000 216.7C1083.3 226.3 1166.7 211.7 1250 198.2C1333.3 184.7 1416.7 172.3 1500 176.5C1583.3 180.7 1666.7 201.3 1750 213.2C1833.3 225 1916.7 228 1958.3 229.5L2000 231L2000 0L1958.3 0C1916.7 0 1833.3 0 1750 0C1666.7 0 1583.3 0 1500 0C1416.7 0 1333.3 0 1250 0C1166.7 0 1083.3 0 1000 0C916.7 0 833.3 0 750 0C666.7 0 583.3 0 500 0C416.7 0 333.3 0 250 0C166.7 0 83.3 0 41.7 0L0 0Z" fill="#fba432"></path><path d="M0 64L41.7 79.7C83.3 95.3 166.7 126.7 250 142.3C333.3 158 416.7 158 500 142.8C583.3 127.7 666.7 97.3 750 90.2C833.3 83 916.7 99 1000 97.7C1083.3 96.3 1166.7 77.7 1250 81.7C1333.3 85.7 1416.7 112.3 1500 116C1583.3 119.7 1666.7 100.3 1750 103.7C1833.3 107 1916.7 133 1958.3 146L2000 159L2000 0L1958.3 0C1916.7 0 1833.3 0 1750 0C1666.7 0 1583.3 0 1500 0C1416.7 0 1333.3 0 1250 0C1166.7 0 1083.3 0 1000 0C916.7 0 833.3 0 750 0C666.7 0 583.3 0 500 0C416.7 0 333.3 0 250 0C166.7 0 83.3 0 41.7 0L0 0Z" fill="#fcaf3c"></path></svg>