<?xml version="1.0" encoding="utf-8"?>
<!-- Generator: Adobe Illustrator 26.0.2, SVG Export Plug-In . SVG Version: 6.00 Build 0)  -->
<svg version="1.1" id="Layer_1" xmlns="http://www.w3.org/2000/svg" xmlns:xlink="http://www.w3.org/1999/xlink" x="0px" y="0px"
	 viewBox="0 0 300 300" style="enable-background:new 0 0 300 300;" xml:space="preserve">
<style type="text/css">
	.st0{fill:#FFD100;}
	.st1{fill:#00549A;}
	.st2{fill:#73A8C6;}
</style>
<g id="Layer_1_00000083068555569848396410000001506683406011193998_">
</g>
<g id="Color">
	<g>
		<g>
			<g>
				<polygon class="st0" points="39.3,67.2 88.3,38.6 10.2,55.7 				"/>
			</g>
			<g>
				<polygon class="st0" points="74.1,103.7 88.3,38.6 52.6,72.6 				"/>
			</g>
			<g>
				<polygon class="st0" points="41.9,86.1 55.6,77.3 52.6,72.6 				"/>
			</g>
		</g>
	</g>
	<g>
		<g>
			<path class="st0" d="M155.4,172.7c-3.5,0.4-7,0.4-10.3,0c-8.1-0.9-14.5,7.1-11.7,14.8c5.7,16.3,8.3,35.4,8.5,55.1H159
				c0.3-19.7,2.8-39,8.5-55.2C170,179.6,163.6,171.8,155.4,172.7z"/>
		</g>
	</g>
	<g>
		<path class="st1" d="M150.2,266c-12.5,0-22.7-10.2-22.7-22.7v-0.8c0-0.6,0.5-1.3,1.3-1.3c0.6,0,1.3,0.5,1.3,1.3v0.8
			c0,11.2,9,20.3,20.3,20.3s20.3-9,20.3-20.3v-0.8c0-0.6,0.5-1.3,1.3-1.3c0.6,0,1.3,0.5,1.3,1.3v0.8
			C172.9,255.8,162.7,266,150.2,266z"/>
	</g>
	<g>
		<polygon class="st2" points="272.6,235.8 265.9,222.2 259.3,235.8 244.3,238 255.2,248.6 252.6,263.4 265.9,256.4 279.3,263.4 
			276.7,248.6 287.6,238 		"/>
	</g>
</g>
<g id="DEVELOPMENT_1_">
</g>
<g id="CREATIVE">
	<g>
		<g>
			<path class="st1" d="M167.1,244.2h-33.8c-7.4,0-13.4-6.1-13.4-13.4v-4c0-9.3-3.7-18.2-10.2-24.7c-5.3-5.3-9.4-11.4-12.4-18.2
				c-3-7.1-4.5-14.6-4.5-22.3c0-15.4,5.9-29.7,16.8-40.5s25.2-16.8,40.5-16.8s29.7,5.9,40.5,16.8s16.8,25.2,16.8,40.5
				c0,7.7-1.5,15.4-4.5,22.3c-2.8,6.8-7.1,13-12.4,18.2c-6.5,6.5-10.2,15.4-10.2,24.7v4C180.5,238.1,174.6,244.2,167.1,244.2z
				 M150.2,106.6c-30.2,0-54.9,24.7-54.9,54.9c0,14.7,5.8,28.5,16.1,38.9c3.5,3.5,6.2,7.5,8.1,12.1c1.8,4.5,2.8,9.3,2.8,14.3v4
				c0,6.1,4.9,11,11,11h33.8c6.1,0,11-4.9,11-11v-4c0-4.9,0.9-9.8,2.8-14.3c1.9-4.5,4.6-8.6,8-12.1c10.5-10.3,16.1-24.1,16.1-38.9
				C205.1,131.2,180.5,106.6,150.2,106.6z"/>
		</g>
		<g>
			<g>
				<path class="st1" d="M158.9,243.9L158.9,243.9c-0.6,0-1.3-0.5-1.3-1.3c0.3-20.9,3.1-40.1,8.5-55.6c1.2-3.2,0.5-6.8-1.7-9.6
					c-2.2-2.7-5.6-4.1-9-3.7c-3.5,0.4-7.1,0.4-10.6,0c-3.4-0.4-6.7,1-8.8,3.7c-2.2,2.7-2.7,6.3-1.7,9.6c5.4,15.4,8.3,34.6,8.5,55.5
					c0,0.6-0.5,1.3-1.2,1.3c-0.6,0-1.3-0.5-1.3-1.2c-0.3-20.7-3.1-39.6-8.4-54.7c-1.4-4.1-0.6-8.5,2.1-11.9c2.7-3.4,6.8-5,11-4.6
					c3.4,0.4,6.7,0.4,10.1,0c4.3-0.5,8.5,1.3,11.2,4.6s3.5,7.7,2.1,11.9c-5.3,15.2-8.3,34.1-8.4,54.9
					C160,243.4,159.5,243.9,158.9,243.9z"/>
			</g>
		</g>
		<g>
			<path class="st1" d="M150.2,266c-12.5,0-22.7-10.2-22.7-22.7v-0.8c0-0.6,0.5-1.3,1.3-1.3c0.6,0,1.3,0.5,1.3,1.3v0.8
				c0,11.2,9,20.3,20.3,20.3s20.3-9,20.3-20.3v-0.8c0-0.6,0.5-1.3,1.3-1.3c0.6,0,1.3,0.5,1.3,1.3v0.8
				C172.9,255.8,162.7,266,150.2,266z"/>
		</g>
		<g>
			<path class="st1" d="M145.4,251.9H131c-0.6,0-1.3-0.5-1.3-1.3c0-0.6,0.5-1.3,1.3-1.3h14.5c0.6,0,1.3,0.5,1.3,1.3
				C146.7,251.4,146.2,251.9,145.4,251.9z"/>
		</g>
	</g>
	<g>
		<g>
			<g>
				<path class="st1" d="M39.3,68.4c-0.1,0-0.3,0-0.4-0.1L9.8,56.8C9.3,56.5,9,56.1,9,55.5c0-0.5,0.4-1,0.9-1.2l78.1-17
					c0.6-0.1,1.2,0.1,1.4,0.8c0.3,0.5,0,1.2-0.5,1.5L40,68.3C39.7,68.4,39.6,68.4,39.3,68.4z M14.3,56l24.9,9.8l41.7-24.4L14.3,56z"
					/>
			</g>
			<g>
				<path class="st1" d="M74.1,105c-0.4,0-0.8-0.3-1-0.5L51.6,73.3c-0.4-0.5-0.3-1.2,0.1-1.5l35.6-34.1c0.4-0.4,1-0.4,1.4-0.1
					c0.5,0.3,0.8,0.8,0.6,1.3l-14.2,65.3c-0.1,0.5-0.5,0.9-1,0.9C74.2,105,74.1,105,74.1,105z M54.2,72.8l19.1,28l12.8-58.6
					L54.2,72.8z"/>
			</g>
			<g>
				<path class="st1" d="M41.9,87.4c-0.1,0-0.3,0-0.4,0c-0.5-0.1-0.8-0.5-0.9-1L38,67.5c-0.1-0.6,0.4-1.3,1-1.4s1.3,0.4,1.4,1
					l2.2,16l8.9-11.2c0.4-0.5,1.2-0.6,1.7-0.3c0.5,0.4,0.6,1.2,0.3,1.7L42.8,86.8C42.7,87.1,42.3,87.4,41.9,87.4z"/>
			</g>
			<g>
				<path class="st1" d="M41.9,87.4c-0.4,0-0.8-0.3-1-0.5c-0.4-0.5-0.3-1.3,0.4-1.7L55,76.4c0.5-0.4,1.3-0.3,1.7,0.4
					c0.4,0.5,0.3,1.3-0.4,1.7l-13.7,8.8C42.4,87.2,42.2,87.4,41.9,87.4z"/>
			</g>
		</g>
	</g>
	<g>
		<path class="st1" d="M252.6,264.7c-0.3,0-0.5-0.1-0.8-0.3c-0.4-0.3-0.5-0.8-0.5-1.2l2.5-14.2L243.4,239c-0.4-0.4-0.5-0.8-0.3-1.3
			c0.1-0.4,0.5-0.8,1-0.9l14.3-2.1l6.5-12.9c0.3-0.4,0.6-0.6,1.2-0.6s0.9,0.3,1.2,0.6l6.5,12.9l14.3,2.1c0.5,0.1,0.9,0.4,1,0.9
			c0.1,0.4,0,0.9-0.3,1.3l-10.3,10.1l2.5,14.2c0.1,0.5-0.1,0.9-0.5,1.2s-0.9,0.3-1.3,0.1l-12.8-6.7l-12.8,6.7
			C253,264.6,252.7,264.7,252.6,264.7z M246.9,238.9l9,8.8c0.3,0.3,0.4,0.6,0.4,1l-2.2,12.4l11.1-5.8c0.4-0.1,0.8-0.1,1.2,0
			l11.1,5.8l-2.2-12.4c-0.1-0.4,0-0.8,0.4-1l9-8.8l-12.5-1.8c-0.4,0-0.8-0.3-0.9-0.6l-5.6-11.4l-5.6,11.4c-0.1,0.4-0.5,0.6-0.9,0.6
			L246.9,238.9z"/>
	</g>
	<g>
		<g>
			<path class="st1" d="M41.9,93.4c-0.6,0-1.3-0.5-1.3-1.3v-2.3c0-0.6,0.5-1.3,1.3-1.3c0.8,0,1.3,0.5,1.3,1.3v2.3
				C43.2,92.9,42.6,93.4,41.9,93.4z"/>
		</g>
		<g>
			<path class="st1" d="M41.9,155.1c-0.6,0-1.3-0.5-1.3-1.3v-4.4c0-0.6,0.5-1.3,1.3-1.3c0.8,0,1.3,0.5,1.3,1.3v4.4
				C43.2,154.5,42.6,155.1,41.9,155.1z M41.9,142.7c-0.6,0-1.3-0.5-1.3-1.3v-4.4c0-0.6,0.5-1.3,1.3-1.3c0.8,0,1.3,0.5,1.3,1.3v4.4
				C43.2,142.2,42.6,142.7,41.9,142.7z M41.9,130.5c-0.6,0-1.3-0.5-1.3-1.3v-4.4c0-0.6,0.5-1.3,1.3-1.3c0.8,0,1.3,0.5,1.3,1.3v4.4
				C43.2,129.8,42.6,130.5,41.9,130.5z M41.9,118.1c-0.6,0-1.3-0.5-1.3-1.3v-4.4c0-0.6,0.5-1.3,1.3-1.3c0.8,0,1.3,0.5,1.3,1.3v4.4
				C43.2,117.6,42.6,118.1,41.9,118.1z M41.9,105.8c-0.6,0-1.3-0.5-1.3-1.3v-4.4c0-0.6,0.5-1.3,1.3-1.3c0.8,0,1.3,0.5,1.3,1.3v4.4
				C43.2,105.2,42.6,105.8,41.9,105.8z"/>
		</g>
		<g>
			<path class="st1" d="M44,165.4h-2.1c-0.6,0-1.3-0.5-1.3-1.3v-2.1c0-0.6,0.5-1.3,1.3-1.3c0.8,0,1.3,0.5,1.3,1.3v0.9h0.9
				c0.6,0,1.3,0.5,1.3,1.3C45.3,164.9,44.8,165.4,44,165.4z"/>
		</g>
		<g>
			<path class="st1" d="M72.9,165.4h-5.2c-0.6,0-1.3-0.5-1.3-1.3c0-0.6,0.5-1.3,1.3-1.3h5.2c0.6,0,1.3,0.5,1.3,1.3
				C74.2,164.9,73.7,165.4,72.9,165.4z M58.4,165.4h-5.2c-0.6,0-1.3-0.5-1.3-1.3c0-0.6,0.5-1.3,1.3-1.3h5.2c0.6,0,1.3,0.5,1.3,1.3
				C59.7,164.9,59.2,165.4,58.4,165.4z"/>
		</g>
		<g>
			<path class="st1" d="M84.4,165.4h-2.3c-0.6,0-1.3-0.5-1.3-1.3c0-0.6,0.5-1.3,1.3-1.3h2.3c0.6,0,1.3,0.5,1.3,1.3
				C85.5,164.9,85,165.4,84.4,165.4z"/>
		</g>
	</g>
	<g>
		<g>
			<path class="st1" d="M266,213.1c-0.6,0-1.3-0.5-1.3-1.3v-2.1c0-0.6,0.5-1.3,1.3-1.3c0.6,0,1.3,0.5,1.3,1.3v2.1
				C267.2,212.4,266.6,213.1,266,213.1z"/>
		</g>
		<g>
			<path class="st1" d="M266,203.1c-0.6,0-1.3-0.5-1.3-1.3v-4.3c0-0.6,0.5-1.3,1.3-1.3c0.6,0,1.3,0.5,1.3,1.3v4.3
				C267.2,202.6,266.6,203.1,266,203.1z M266,191.4c-0.6,0-1.3-0.5-1.3-1.3v-4.3c0-0.6,0.5-1.3,1.3-1.3c0.6,0,1.3,0.5,1.3,1.3v4.3
				C267.2,190.9,266.6,191.4,266,191.4z M266,179.5c-0.6,0-1.3-0.5-1.3-1.3v-4.1c0-0.6,0.5-1.3,1.3-1.3c0.6,0,1.3,0.5,1.3,1.3v4.3
				C267.2,179,266.6,179.5,266,179.5z"/>
		</g>
		<g>
			<path class="st1" d="M266,167.8c-0.6,0-1.3-0.5-1.3-1.3v-1h-1c-0.6,0-1.3-0.5-1.3-1.3c0-0.6,0.5-1.3,1.3-1.3h2.3
				c0.6,0,1.3,0.5,1.3,1.3v2.3C267.2,167.3,266.6,167.8,266,167.8z"/>
		</g>
		<g>
			<path class="st1" d="M255.5,165.4H251c-0.6,0-1.3-0.5-1.3-1.3c0-0.6,0.5-1.3,1.3-1.3h4.5c0.6,0,1.3,0.5,1.3,1.3
				C256.8,164.9,256.3,165.4,255.5,165.4z M242.9,165.4h-4.5c-0.6,0-1.3-0.5-1.3-1.3c0-0.6,0.5-1.3,1.3-1.3h4.5
				c0.6,0,1.3,0.5,1.3,1.3C244.2,164.9,243.5,165.4,242.9,165.4z M230.2,165.4h-4.5c-0.6,0-1.3-0.5-1.3-1.3c0-0.6,0.5-1.3,1.3-1.3
				h4.5c0.6,0,1.3,0.5,1.3,1.3C231.4,164.9,230.9,165.4,230.2,165.4z"/>
		</g>
		<g>
			<path class="st1" d="M217.6,165.4h-2.1c-0.6,0-1.3-0.5-1.3-1.3c0-0.6,0.5-1.3,1.3-1.3h2.1c0.6,0,1.3,0.5,1.3,1.3
				C218.8,164.9,218.2,165.4,217.6,165.4z"/>
		</g>
	</g>
	<g>
		<g>
			<path class="st1" d="M238.5,108.9c-0.6,0-1.3-0.5-1.3-1.3v-7.9c0-0.6,0.5-1.3,1.3-1.3c0.6,0,1.3,0.5,1.3,1.3v7.9
				C239.7,108.4,239.1,108.9,238.5,108.9z"/>
		</g>
		<g>
			<path class="st1" d="M242.5,105h-7.9c-0.6,0-1.3-0.5-1.3-1.3c0-0.6,0.5-1.3,1.3-1.3h7.9c0.6,0,1.3,0.5,1.3,1.3
				C243.8,104.5,243.3,105,242.5,105z"/>
		</g>
	</g>
	<g>
		<g>
			<path class="st1" d="M51.5,197.2c-0.6,0-1.3-0.5-1.3-1.3V188c0-0.6,0.5-1.3,1.3-1.3s1.3,0.5,1.3,1.3v7.9
				C52.6,196.7,52.1,197.2,51.5,197.2z"/>
		</g>
		<g>
			<path class="st1" d="M55.5,193.3h-7.9c-0.6,0-1.3-0.5-1.3-1.3c0-0.6,0.5-1.3,1.3-1.3h7.9c0.6,0,1.3,0.5,1.3,1.3
				S56.1,193.3,55.5,193.3z"/>
		</g>
	</g>
	<g>
		<g>
			<path class="st1" d="M99.2,97.2c-0.6,0-1.3-0.5-1.3-1.3V88c0-0.6,0.5-1.3,1.3-1.3s1.3,0.5,1.3,1.3v7.9
				C100.4,96.6,99.9,97.2,99.2,97.2z"/>
		</g>
		<g>
			<path class="st1" d="M103.2,93.3h-7.9c-0.6,0-1.3-0.5-1.3-1.3c0-0.8,0.5-1.3,1.3-1.3h7.9c0.6,0,1.3,0.5,1.3,1.3
				C104.5,92.8,103.9,93.3,103.2,93.3z"/>
		</g>
	</g>
	<g>
		<g>
			<path class="st1" d="M211.4,260.8c-0.6,0-1.3-0.5-1.3-1.3v-7.9c0-0.6,0.5-1.3,1.3-1.3c0.6,0,1.3,0.5,1.3,1.3v7.9
				C212.6,260.2,212,260.8,211.4,260.8z"/>
		</g>
		<g>
			<path class="st1" d="M215.4,256.8h-7.9c-0.6,0-1.3-0.5-1.3-1.3c0-0.6,0.5-1.3,1.3-1.3h7.9c0.6,0,1.3,0.5,1.3,1.3
				C216.7,256.3,216,256.8,215.4,256.8z"/>
		</g>
	</g>
	<g>
		<path class="st1" d="M277.9,60.9c0-1,0.8-1.8,1.7-1.8l0,0l0,0l0,0c1,0,1.8,0.8,1.8,1.7l0,0c0,1-0.8,1.8-1.7,1.8l0,0l0,0l0,0
			C278.8,62.6,278,61.9,277.9,60.9z M272.7,60c-0.6-0.6-0.8-1.8,0-2.5l0,0c0.6-0.6,1.8-0.8,2.5,0l0,0c0.6,0.6,0.8,1.8,0,2.5l0,0
			c-0.4,0.4-0.8,0.5-1.3,0.5l0,0C273.5,60.5,273.1,60.2,272.7,60z M284.1,59.7c-0.6-0.6-0.8-1.8-0.1-2.5l0,0
			c0.6-0.6,1.8-0.8,2.5-0.1l0,0c0.6,0.6,0.8,1.8,0.1,2.5l0,0c-0.4,0.4-0.8,0.5-1.3,0.5l0,0C284.8,60.1,284.5,60,284.1,59.7z
			 M269.7,53.1c0-1,0.8-1.8,1.7-1.8l0,0c1,0,1.8,0.8,1.8,1.8l0,0c0,1-0.8,1.8-1.7,1.8l0,0l0,0l0,0C270.5,54.8,269.7,54.1,269.7,53.1
			z M285.7,52.8c0-1,0.8-1.8,1.7-1.8l0,0c1,0,1.8,0.8,1.8,1.7l0,0c0,1-0.8,1.8-1.7,1.8l0,0c0,0,0,0-0.1,0l0,0
			C286.5,54.4,285.7,53.7,285.7,52.8z M272.6,48.5c-0.6-0.6-0.6-1.8,0-2.5l0,0c0.6-0.6,1.8-0.6,2.5,0l0,0c0.6,0.6,0.6,1.8,0,2.5l0,0
			l0,0l0,0c-0.4,0.4-0.8,0.5-1.3,0.5l0,0C273.4,49,272.8,48.9,272.6,48.5z M283.7,48.4c-0.8-0.6-0.8-1.8-0.1-2.5l0,0
			c0.6-0.8,1.8-0.8,2.5-0.1l0,0c0.8,0.6,0.8,1.8,0.1,2.5l0,0c-0.4,0.4-0.8,0.5-1.3,0.5l0,0C284.5,48.8,284.1,48.6,283.7,48.4z
			 M277.7,44.9c0-1,0.8-1.8,1.8-1.8l0,0c0.9,0,1.7,0.8,1.7,1.8l0,0c0,1-0.8,1.8-1.8,1.8l0,0l0,0l0,0
			C278.5,46.7,277.7,45.9,277.7,44.9z"/>
	</g>
	<g>
		<path class="st1" d="M166.5,74.4c0-1,0.8-1.8,1.7-1.8l0,0l0,0l0,0c1,0,1.8,0.8,1.8,1.7l0,0c0,1-0.8,1.8-1.7,1.8l0,0l0,0l0,0
			C167.3,76.1,166.5,75.5,166.5,74.4z M161.2,73.5c-0.6-0.6-0.8-1.8,0-2.5l0,0c0.6-0.6,1.8-0.8,2.5,0l0,0c0.6,0.6,0.8,1.8,0,2.5l0,0
			c-0.4,0.4-0.8,0.5-1.3,0.5l0,0C162,74.1,161.6,73.8,161.2,73.5z M172.7,73.3c-0.6-0.6-0.8-1.8-0.1-2.5l0,0
			c0.6-0.6,1.8-0.8,2.5-0.1l0,0c0.6,0.6,0.8,1.8,0.1,2.5l0,0c-0.4,0.4-0.8,0.5-1.3,0.5l0,0C173.4,73.8,172.9,73.5,172.7,73.3z
			 M158.2,66.7L158.2,66.7c0-1,0.8-1.8,1.7-1.8l0,0c1,0,1.8,0.8,1.8,1.8l0,0c0,1-0.8,1.8-1.7,1.8l0,0l0,0l0,0
			C159,68.4,158.2,67.6,158.2,66.7z M174.2,66.2c0-1,0.8-1.8,1.7-1.8l0,0c1,0,1.8,0.6,1.8,1.7l0,0c0,1-0.8,1.8-1.7,1.8l0,0
			c0,0,0,0-0.1,0l0,0C175,67.9,174.2,67.2,174.2,66.2z M161.1,62.2c-0.6-0.6-0.6-1.8,0-2.5l0,0c0.6-0.6,1.8-0.6,2.5,0l0,0
			c0.6,0.6,0.6,1.8,0,2.5l0,0c-0.4,0.4-0.8,0.5-1.3,0.5l0,0C161.8,62.6,161.4,62.4,161.1,62.2z M172.2,61.9L172.2,61.9L172.2,61.9
			c-0.8-0.6-0.8-1.8-0.1-2.5l0,0c0.6-0.8,1.8-0.8,2.5-0.1l0,0c0.8,0.6,0.8,1.8,0.1,2.5l0,0c-0.4,0.4-0.8,0.5-1.3,0.5l0,0
			C172.9,62.3,172.5,62.2,172.2,61.9z M166.2,58.4c0-1,0.8-1.8,1.8-1.8l0,0c1,0,1.8,0.8,1.8,1.8l0,0c0,1-0.8,1.8-1.8,1.8l0,0l0,0
			l0,0C167,60.2,166.2,59.5,166.2,58.4z"/>
	</g>
	<g>
		<path class="st1" d="M85,239.9c0-1,0.8-1.8,1.7-1.8l0,0c1,0,1.8,0.8,1.8,1.7l0,0c0,1-0.8,1.8-1.7,1.8l0,0l0,0l0,0
			C85.9,241.6,85,240.8,85,239.9z M79.9,238.9c-0.6-0.6-0.8-1.8,0-2.5l0,0c0.6-0.6,1.8-0.8,2.5,0l0,0c0.6,0.6,0.8,1.8,0,2.5l0,0
			c-0.4,0.4-0.8,0.5-1.3,0.5l0,0C80.6,239.4,80.3,239.3,79.9,238.9z M91.2,238.6c-0.6-0.6-0.8-1.8-0.1-2.5l0,0l0,0l0,0
			c0.6-0.6,1.8-0.8,2.5-0.1l0,0c0.6,0.6,0.8,1.8,0.1,2.5l0,0c-0.4,0.4-0.8,0.5-1.3,0.5l0,0C92,239.2,91.6,239,91.2,238.6z
			 M76.9,232.1L76.9,232.1c0-1,0.8-1.8,1.7-1.8l0,0c1,0,1.8,0.8,1.8,1.8l0,0l0,0l0,0c0,1-0.8,1.8-1.7,1.8l0,0l0,0l0,0
			C77.7,233.9,76.9,233,76.9,232.1z M92.9,231.7c0-1,0.8-1.8,1.7-1.8l0,0c1,0,1.8,0.6,1.8,1.7l0,0c0,1-0.8,1.8-1.7,1.8l0,0
			c0,0,0,0-0.1,0l0,0C93.7,233.3,92.9,232.6,92.9,231.7z M79.7,227.5c-0.6-0.6-0.6-1.8,0-2.5l0,0c0.6-0.6,1.8-0.6,2.5,0l0,0
			c0.6,0.6,0.6,1.8,0,2.5l0,0c-0.4,0.4-0.8,0.5-1.3,0.5l0,0C80.5,228.1,80,227.8,79.7,227.5z M90.8,227.3L90.8,227.3L90.8,227.3
			c-0.8-0.6-0.8-1.8-0.1-2.5l0,0c0.6-0.8,1.8-0.8,2.5-0.1l0,0c0.8,0.6,0.8,1.8,0.1,2.5l0,0c-0.4,0.4-0.8,0.5-1.3,0.5l0,0
			C91.6,227.8,91.2,227.5,90.8,227.3z M84.9,223.9c0-1,0.8-1.8,1.8-1.8l0,0c1,0,1.8,0.8,1.8,1.8l0,0c0,1-0.8,1.8-1.8,1.8l0,0
			C85.7,225.6,84.9,224.8,84.9,223.9z"/>
	</g>
	<g>
		<path class="st1" d="M22.9,259.7c0-1,0.8-1.8,1.7-1.8l0,0c1,0,1.8,0.8,1.8,1.7l0,0c0,1-0.8,1.8-1.7,1.8l0,0l0,0l0,0
			C23.7,261.4,22.9,260.6,22.9,259.7z M17.6,258.6c-0.6-0.6-0.8-1.8,0-2.5l0,0c0.6-0.6,1.8-0.8,2.5,0l0,0c0.6,0.6,0.8,1.8,0,2.5l0,0
			c-0.4,0.4-0.8,0.5-1.3,0.5l0,0C18.4,259.2,18,259,17.6,258.6z M29.1,258.4c-0.6-0.6-0.8-1.8-0.1-2.5l0,0l0,0l0,0
			c0.6-0.6,1.8-0.8,2.5-0.1l0,0c0.6,0.6,0.8,1.8,0.1,2.5l0,0c-0.4,0.4-0.8,0.5-1.3,0.5l0,0C29.9,258.9,29.4,258.6,29.1,258.4z
			 M14.7,251.8c0-1,0.8-1.8,1.7-1.8l0,0c1,0,1.8,0.8,1.8,1.8l0,0c0,1-0.8,1.8-1.7,1.8l0,0l0,0l0,0C15.5,253.6,14.7,252.7,14.7,251.8
			z M30.7,251.4c0-1,0.8-1.8,1.7-1.8l0,0c1,0,1.8,0.6,1.8,1.7l0,0c0,1-0.8,1.8-1.7,1.8l0,0c0,0,0,0-0.1,0l0,0
			C31.5,253,30.7,252.3,30.7,251.4z M17.5,247.3c-0.6-0.6-0.6-1.8,0-2.5l0,0c0.6-0.6,1.8-0.6,2.5,0l0,0c0.6,0.6,0.6,1.8,0,2.5l0,0
			c-0.4,0.4-0.8,0.5-1.3,0.5l0,0C18.3,247.8,17.9,247.5,17.5,247.3z M28.6,247c-0.8-0.6-0.8-1.8-0.1-2.5l0,0
			c0.6-0.8,1.8-0.8,2.5-0.1l0,0c0.8,0.6,0.8,1.8,0.1,2.5l0,0c-0.4,0.4-0.8,0.5-1.3,0.5l0,0C29.4,247.4,29,247.3,28.6,247z
			 M22.7,243.7c0-1,0.8-1.8,1.8-1.8l0,0c1,0,1.8,0.8,1.8,1.8l0,0c0,1-0.8,1.8-1.8,1.8l0,0C23.5,245.3,22.7,244.6,22.7,243.7z"/>
	</g>
	<g>
		<path class="st1" d="M213.5,219.8c0-1,0.8-1.8,1.7-1.8l0,0c1,0,1.8,0.8,1.8,1.7l0,0c0,1-0.8,1.8-1.7,1.8l0,0l0,0l0,0
			C214.2,221.5,213.5,220.8,213.5,219.8z M208.3,218.9L208.3,218.9c-0.6-0.6-0.8-1.8,0-2.5l0,0c0.6-0.6,1.8-0.8,2.5,0l0,0l0,0l0,0
			c0.6,0.6,0.8,1.8,0,2.5l0,0c-0.4,0.4-0.8,0.5-1.3,0.5l0,0C209.1,219.4,208.6,219.1,208.3,218.9z M219.7,218.6
			c-0.6-0.6-0.8-1.8-0.1-2.5l0,0l0,0l0,0c0.6-0.6,1.8-0.8,2.5-0.1l0,0c0.6,0.6,0.8,1.8,0.1,2.5l0,0c-0.4,0.4-0.8,0.5-1.3,0.5l0,0
			C220.4,219,220,218.9,219.7,218.6z M205.2,211.9c0-1,0.8-1.8,1.7-1.8l0,0c1,0,1.8,0.8,1.8,1.8l0,0c0,1-0.8,1.8-1.7,1.8l0,0l0,0
			l0,0C206.1,213.7,205.3,212.9,205.2,211.9z M221.2,211.5c0-1,0.8-1.8,1.7-1.8l0,0c1,0,1.8,0.6,1.8,1.7l0,0c0,1-0.8,1.8-1.7,1.8
			l0,0c0,0,0,0-0.1,0l0,0C222.1,213.2,221.3,212.6,221.2,211.5z M208,207.4c-0.6-0.6-0.6-1.8,0-2.5l0,0c0.6-0.6,1.8-0.6,2.5,0l0,0
			c0.6,0.6,0.6,1.8,0,2.5l0,0l0,0l0,0c-0.4,0.4-0.8,0.5-1.3,0.5l0,0C208.9,207.9,208.4,207.8,208,207.4z M219.3,207.1L219.3,207.1
			L219.3,207.1c-0.8-0.6-0.8-1.8-0.1-2.5l0,0c0.6-0.8,1.8-0.8,2.5-0.1l0,0c0.8,0.6,0.8,1.8,0.1,2.5l0,0c-0.4,0.4-0.8,0.5-1.3,0.5
			l0,0C220,207.7,219.5,207.5,219.3,207.1z M213.2,203.8c0-1,0.8-1.8,1.8-1.8l0,0c1,0,1.8,0.8,1.8,1.8l0,0c0,1-0.8,1.8-1.8,1.8l0,0
			C214.1,205.6,213.2,204.8,213.2,203.8z"/>
	</g>
</g>
<g id="SEO">
</g>
<g id="WEB_DESIGN">
</g>
<g id="GRAPHIC">
</g>
</svg>
