<?xml version="1.0" encoding="utf-8"?>
<!-- Generator: Adobe Illustrator 26.0.2, SVG Export Plug-In . SVG Version: 6.00 Build 0)  -->
<svg version="1.1" id="Layer_1" xmlns="http://www.w3.org/2000/svg" xmlns:xlink="http://www.w3.org/1999/xlink" x="0px" y="0px"
	 viewBox="0 0 300 300" style="enable-background:new 0 0 300 300;" xml:space="preserve">
<style type="text/css">
	.st0{fill:#FFD100;}
	.st1{fill:#73A8C6;}
	.st2{fill:#00549A;}
</style>
<g id="Layer_1_00000107557499303367942200000011969129178333549227_">
</g>
<g id="Color">
	<g>
		<path class="st0" d="M40.8,91.2H21.7c-2,0-3.6,1.6-3.6,3.6v161c0,2,1.6,3.6,3.6,3.6h19.1c2,0,3.6-1.6,3.6-3.6v-161
			C44.4,92.8,42.8,91.2,40.8,91.2z M25.4,255c-1.5,0-2.6-1.2-2.6-2.6c0-1.5,1.2-2.6,2.6-2.6c1.5,0,2.6,1.2,2.6,2.6
			C28.2,253.8,26.9,255,25.4,255z"/>
	</g>
	<g>
		<g>
			<polygon class="st0" points="142,131.1 162.1,131.1 152.1,117.7 			"/>
		</g>
		<g>
			<polygon class="st0" points="152.1,220.6 162.1,207.2 142,207.2 			"/>
		</g>
	</g>
	<g>
		<path class="st1" d="M228.4,91H77.2c-3.2,0-5.7,2.6-5.7,5.8v9.9h162.6v-9.9C234.1,93.6,231.6,91,228.4,91z M82.2,102.1
			c-1.6,0-2.9-1.2-2.9-2.9c0-1.6,1.2-2.9,2.9-2.9s2.9,1.2,2.9,2.9C85,100.8,83.7,102.1,82.2,102.1z M95.7,102.1
			c-1.6,0-2.9-1.2-2.9-2.9c0-1.6,1.2-2.9,2.9-2.9s2.9,1.2,2.9,2.9C98.6,100.8,97.3,102.1,95.7,102.1z"/>
	</g>
	<g>
		<path class="st1" d="M280,39.5h-98.4c-3.2,0-5.7,2.6-5.7,5.8v10.8h110V45.4C285.8,42.1,283.2,39.5,280,39.5z M185,50.4
			c-1.6,0-2.9-1.2-2.9-2.9s1.2-2.9,2.9-2.9s2.9,1.2,2.9,2.9S186.6,50.4,185,50.4z M196.6,50.4c-1.6,0-2.9-1.2-2.9-2.9
			s1.2-2.9,2.9-2.9s2.9,1.2,2.9,2.9S198.2,50.4,196.6,50.4z"/>
	</g>
</g>
<g id="DEVELOPMENT_1_">
</g>
<g id="CREATIVE">
</g>
<g id="SEO">
</g>
<g id="WEB_DESIGN">
	<g>
		<path class="st2" d="M228.3,232.8h-151c-3.8,0-7.1-3.2-7.1-7.1V97c0-3.8,3.2-7.1,7.1-7.1h151c3.8,0,7.1,3.2,7.1,7.1v128.7
			C235.4,229.6,232.1,232.8,228.3,232.8z M77.3,92.3c-2.6,0-4.7,2.1-4.7,4.7v128.7c0,2.6,2.1,4.7,4.7,4.7h151c2.6,0,4.7-2.1,4.7-4.7
			V97c0-2.6-2.1-4.7-4.7-4.7C228.3,92.3,77.3,92.3,77.3,92.3z"/>
	</g>
	<g>
		<g>
			<path class="st2" d="M218.2,197.4H85.9c-1.7,0-3.1-1.4-3.1-3.1v-50.2c0-1.7,1.4-3.1,3.1-3.1h132.2c1.7,0,3.1,1.4,3.1,3.1v50.2
				C221.3,196.1,220,197.4,218.2,197.4z M85.9,143.3c-0.5,0-0.7,0.4-0.7,0.7v50.2c0,0.5,0.4,0.7,0.7,0.7h132.2
				c0.5,0,0.7-0.4,0.7-0.7V144c0-0.5-0.4-0.7-0.7-0.7H85.9z"/>
		</g>
	</g>
	<g>
		<path class="st2" d="M233.2,107.9H72.9c-0.6,0-1.2-0.5-1.2-1.2s0.5-1.2,1.2-1.2h160.4c0.6,0,1.2,0.5,1.2,1.2
			S233.9,107.9,233.2,107.9z"/>
	</g>
	<g>
		<path class="st2" d="M106,107.7c-0.6,0-1.2-0.5-1.2-1.2V92c0-0.6,0.5-1.2,1.2-1.2s1.2,0.5,1.2,1.2v14.4
			C107.2,107.1,106.8,107.7,106,107.7z"/>
	</g>
	<g>
		<g>
			<path class="st2" d="M193.8,98.1H111c-0.6,0-1.2-0.5-1.2-1.2s0.5-1.2,1.2-1.2h82.8c0.6,0,1.2,0.5,1.2,1.2S194.4,98.1,193.8,98.1z
				"/>
		</g>
		<g>
			<path class="st2" d="M127.4,103.1H111c-0.6,0-1.2-0.5-1.2-1.2c0-0.7,0.5-1.2,1.2-1.2h16.4c0.6,0,1.2,0.5,1.2,1.2
				C128.6,102.6,128.1,103.1,127.4,103.1z"/>
		</g>
	</g>
	<g>
		<g>
			<path class="st2" d="M162.1,132.3h-20c-0.5,0-0.9-0.2-1.1-0.6c-0.2-0.4-0.1-0.9,0.1-1.2l10.1-13.4c0.2-0.2,0.6-0.5,1-0.5
				s0.7,0.1,1,0.5l10.1,13.4c0.2,0.4,0.4,0.9,0.1,1.2C163,132,162.5,132.3,162.1,132.3z M144.5,129.9h15.3l-7.7-10.2L144.5,129.9z"
				/>
		</g>
		<g>
			<path class="st2" d="M152.1,221.9c-0.4,0-0.7-0.1-1-0.5L141,208c-0.2-0.4-0.4-0.9-0.1-1.2s0.6-0.6,1.1-0.6h20
				c0.5,0,0.9,0.2,1.1,0.6s0.1,0.9-0.1,1.2l-10.1,13.4C152.8,221.6,152.4,221.9,152.1,221.9z M144.5,208.5l7.7,10.2l7.7-10.2H144.5z
				"/>
		</g>
	</g>
	<g>
		<path class="st2" d="M218.4,196.7c-0.1,0-0.2,0-0.5-0.1l-40.7-16.1c-0.6-0.2-0.9-1-0.6-1.5c0.2-0.6,1-0.9,1.5-0.6l40.7,16.1
			c0.6,0.2,0.9,1,0.6,1.5C219.3,196.4,218.8,196.7,218.4,196.7z"/>
	</g>
	<g>
		<path class="st2" d="M128,160.8c-0.1,0-0.2,0-0.5-0.1l-42.2-16.8c-0.6-0.2-0.9-1-0.6-1.5c0.2-0.6,1-0.9,1.5-0.6l42.2,16.8
			c0.6,0.2,0.9,1,0.6,1.5C128.8,160.6,128.5,160.8,128,160.8z"/>
	</g>
	<g>
		<path class="st2" d="M85.8,196.7c-0.5,0-0.9-0.2-1.1-0.7c-0.2-0.6,0-1.2,0.6-1.5l42.2-16.8c0.6-0.2,1.2,0,1.5,0.6
			c0.2,0.6,0,1.2-0.6,1.5l-42.2,16.8C86,196.7,85.9,196.7,85.8,196.7z"/>
	</g>
	<g>
		<path class="st2" d="M177.8,160.2c-0.5,0-0.9-0.2-1.1-0.7c-0.2-0.6,0-1.2,0.6-1.5l40.7-16.1c0.6-0.2,1.2,0,1.5,0.6
			c0.2,0.6,0,1.2-0.6,1.5l-40.7,16.1C178,160.2,177.9,160.2,177.8,160.2z"/>
	</g>
	<g>
		<g>
			<path class="st2" d="M82.2,103.3c-2.2,0-4.1-1.9-4.1-4.1c0-2.2,1.9-4.1,4.1-4.1s4.1,1.9,4.1,4.1
				C86.1,101.5,84.4,103.3,82.2,103.3z M82.2,97.5c-1,0-1.7,0.7-1.7,1.7c0,1,0.7,1.7,1.7,1.7c1,0,1.7-0.7,1.7-1.7
				C83.8,98.2,83,97.5,82.2,97.5z"/>
		</g>
		<g>
			<path class="st2" d="M95.7,103.3c-2.2,0-4.1-1.9-4.1-4.1c0-2.2,1.9-4.1,4.1-4.1s4.1,1.9,4.1,4.1
				C99.8,101.5,97.9,103.3,95.7,103.3z M95.7,97.5c-1,0-1.7,0.7-1.7,1.7c0,1,0.7,1.7,1.7,1.7s1.7-0.7,1.7-1.7
				C97.4,98.2,96.6,97.5,95.7,97.5z"/>
		</g>
	</g>
	<g>
		<g>
			<path class="st2" d="M279.3,184.5h-43.6c-0.6,0-1.2-0.5-1.2-1.2c0-0.7,0.5-1.2,1.2-1.2h43.6c3,0,5.3-2.4,5.3-5.3V46.1
				c0-2.9-2.4-5.3-5.3-5.3h-97.1c-2.9,0-5.3,2.4-5.3,5.3v43.2c0,0.6-0.5,1.2-1.2,1.2c-0.6,0-1.2-0.5-1.2-1.2V46.1
				c0-4.2,3.5-7.7,7.7-7.7h97.1c4.2,0,7.7,3.5,7.7,7.7v130.7C287,181,283.5,184.5,279.3,184.5z"/>
		</g>
		<g>
			<path class="st2" d="M268.9,57.3h-93c-0.6,0-1.2-0.5-1.2-1.2s0.5-1.2,1.2-1.2h93c0.6,0,1.2,0.5,1.2,1.2S269.5,57.3,268.9,57.3z"
				/>
		</g>
		<g>
			<path class="st2" d="M205.8,55.8c-0.6,0-1.2-0.5-1.2-1.2V40.4c0-0.6,0.5-1.2,1.2-1.2c0.6,0,1.2,0.5,1.2,1.2v14.2
				C207.1,55.3,206.4,55.8,205.8,55.8z"/>
		</g>
		<g>
			<g>
				<path class="st2" d="M185,51.7c-2.2,0-4.1-1.9-4.1-4.1s1.9-4.1,4.1-4.1s4.1,1.9,4.1,4.1S187.2,51.7,185,51.7z M185,45.9
					c-1,0-1.7,0.7-1.7,1.7c0,1,0.7,1.7,1.7,1.7s1.7-0.7,1.7-1.7C186.7,46.6,186,45.9,185,45.9z"/>
			</g>
			<g>
				<path class="st2" d="M196.6,51.7c-2.2,0-4.1-1.9-4.1-4.1s1.9-4.1,4.1-4.1c2.2,0,4.1,1.9,4.1,4.1
					C200.7,49.8,198.9,51.7,196.6,51.7z M196.6,45.9c-1,0-1.7,0.7-1.7,1.7c0,1,0.7,1.7,1.7,1.7s1.7-0.7,1.7-1.7
					C198.4,46.6,197.6,45.9,196.6,45.9z"/>
			</g>
		</g>
		<g>
			<g>
				<path class="st2" d="M263.9,46.1h-51.6c-0.6,0-1.2-0.5-1.2-1.2c0-0.7,0.5-1.2,1.2-1.2h51.6c0.6,0,1.2,0.5,1.2,1.2
					C265.2,45.6,264.5,46.1,263.9,46.1z"/>
			</g>
			<g>
				<path class="st2" d="M230.8,51.7h-18.5c-0.6,0-1.2-0.5-1.2-1.2c0-0.7,0.5-1.2,1.2-1.2h18.5c0.6,0,1.2,0.5,1.2,1.2
					C232,51.2,231.4,51.7,230.8,51.7z"/>
			</g>
		</g>
		<g>
			<path class="st2" d="M285.8,57.3H280c-0.6,0-1.2-0.5-1.2-1.2s0.5-1.2,1.2-1.2h5.7c0.6,0,1.2,0.5,1.2,1.2S286.4,57.3,285.8,57.3z"
				/>
		</g>
		<g>
			<path class="st2" d="M279.1,98.9h-43.6c-0.6,0-1.2-0.5-1.2-1.2s0.5-1.2,1.2-1.2h42.5V67.5h-94.2v22.2c0,0.6-0.5,1.2-1.2,1.2
				c-0.6,0-1.2-0.5-1.2-1.2V66.2c0-0.6,0.5-1.2,1.2-1.2h96.6c0.6,0,1.2,0.5,1.2,1.2v31.4C280.3,98.2,279.8,98.9,279.1,98.9z"/>
		</g>
		<g>
			<g>
				<path class="st2" d="M279.2,112.9h-36.2c-0.6,0-1.2-0.5-1.2-1.2c0-0.7,0.5-1.2,1.2-1.2h36.2c0.6,0,1.2,0.5,1.2,1.2
					C280.4,112.4,279.8,112.9,279.2,112.9z"/>
			</g>
			<g>
				<path class="st2" d="M279.2,123.9h-36.2c-0.6,0-1.2-0.5-1.2-1.2c0-0.6,0.5-1.2,1.2-1.2h36.2c0.6,0,1.2,0.5,1.2,1.2
					C280.3,123.3,279.8,123.9,279.2,123.9z"/>
			</g>
			<g>
				<path class="st2" d="M279.2,134.7h-36.2c-0.6,0-1.2-0.5-1.2-1.2c0-0.6,0.5-1.2,1.2-1.2h36.2c0.6,0,1.2,0.5,1.2,1.2
					C280.3,134.2,279.8,134.7,279.2,134.7z"/>
			</g>
			<g>
				<path class="st2" d="M279.2,145.9h-36.2c-0.6,0-1.2-0.5-1.2-1.2c0-0.6,0.5-1.2,1.2-1.2h36.2c0.6,0,1.2,0.5,1.2,1.2
					C280.3,145.4,279.8,145.9,279.2,145.9z"/>
			</g>
			<g>
				<path class="st2" d="M279.2,156.7h-36.2c-0.6,0-1.2-0.5-1.2-1.2c0-0.6,0.5-1.2,1.2-1.2h36.2c0.6,0,1.2,0.5,1.2,1.2
					C280.3,156.2,279.8,156.7,279.2,156.7z"/>
			</g>
		</g>
		<g>
			<path class="st2" d="M279.2,172.7h-43.8c-0.6,0-1.2-0.5-1.2-1.2c0-0.6,0.5-1.2,1.2-1.2h43.8c0.6,0,1.2,0.5,1.2,1.2
				C280.3,172.1,279.8,172.7,279.2,172.7z"/>
		</g>
	</g>
	<g>
		<g>
			<path class="st2" d="M40.8,260.6H21.7c-2.6,0-4.7-2.1-4.7-4.7V94.8c0-2.6,2.1-4.7,4.7-4.7h19.1c2.6,0,4.7,2.1,4.7,4.7v161.1
				C45.6,258.5,43.4,260.6,40.8,260.6z M21.7,92.3c-1.4,0-2.4,1.1-2.4,2.4v161.1c0,1.4,1.1,2.4,2.4,2.4h19.1c1.4,0,2.4-1.1,2.4-2.4
				v-161c0-1.4-1.1-2.4-2.4-2.4H21.7V92.3z"/>
		</g>
		<g>
			<path class="st2" d="M43.9,102.6H31c-0.6,0-1.2-0.5-1.2-1.2s0.5-1.2,1.2-1.2h12.9c0.6,0,1.2,0.5,1.2,1.2S44.6,102.6,43.9,102.6z"
				/>
		</g>
		<g>
			<path class="st2" d="M43.9,112.1h-6c-0.6,0-1.2-0.5-1.2-1.2c0-0.7,0.5-1.2,1.2-1.2h6c0.6,0,1.2,0.5,1.2,1.2
				C45.2,111.6,44.6,112.1,43.9,112.1z"/>
		</g>
		<g>
			<path class="st2" d="M43.9,122.2H31c-0.6,0-1.2-0.5-1.2-1.2s0.5-1.2,1.2-1.2h12.9c0.6,0,1.2,0.5,1.2,1.2
				C45.2,121.7,44.6,122.2,43.9,122.2z"/>
		</g>
		<g>
			<path class="st2" d="M43.9,132.4h-6c-0.6,0-1.2-0.5-1.2-1.2c0-0.6,0.5-1.2,1.2-1.2h6c0.6,0,1.2,0.5,1.2,1.2
				C45.1,131.8,44.6,132.4,43.9,132.4z"/>
		</g>
		<g>
			<path class="st2" d="M43.9,142.1H31c-0.6,0-1.2-0.5-1.2-1.2c0-0.6,0.5-1.2,1.2-1.2h12.9c0.6,0,1.2,0.5,1.2,1.2
				C45.1,141.4,44.6,142.1,43.9,142.1z"/>
		</g>
		<g>
			<path class="st2" d="M43.9,152h-6c-0.6,0-1.2-0.5-1.2-1.2c0-0.6,0.5-1.2,1.2-1.2h6c0.6,0,1.2,0.5,1.2,1.2
				C45.1,151.5,44.6,152,43.9,152z"/>
		</g>
		<g>
			<path class="st2" d="M43.9,162H31c-0.6,0-1.2-0.5-1.2-1.2c0-0.6,0.5-1.2,1.2-1.2h12.9c0.6,0,1.2,0.5,1.2,1.2
				C45.1,161.4,44.6,162,43.9,162z"/>
		</g>
		<g>
			<path class="st2" d="M43.9,171.6h-6c-0.6,0-1.2-0.5-1.2-1.2c0-0.6,0.5-1.2,1.2-1.2h6c0.6,0,1.2,0.5,1.2,1.2
				C45.1,171.1,44.6,171.6,43.9,171.6z"/>
		</g>
		<g>
			<path class="st2" d="M43.9,181.7H31c-0.6,0-1.2-0.5-1.2-1.2c0-0.6,0.5-1.2,1.2-1.2h12.9c0.6,0,1.2,0.5,1.2,1.2
				C45.1,181.2,44.6,181.7,43.9,181.7z"/>
		</g>
		<g>
			<path class="st2" d="M43.9,191.3h-6c-0.6,0-1.2-0.5-1.2-1.2c0-0.6,0.5-1.2,1.2-1.2h6c0.6,0,1.2,0.5,1.2,1.2
				C45.1,190.7,44.6,191.3,43.9,191.3z"/>
		</g>
		<g>
			<path class="st2" d="M43.9,201.3H31c-0.6,0-1.2-0.5-1.2-1.2c0-0.6,0.5-1.2,1.2-1.2h12.9c0.6,0,1.2,0.5,1.2,1.2
				C45.1,200.8,44.6,201.3,43.9,201.3z"/>
		</g>
		<g>
			<path class="st2" d="M43.9,211.5h-6c-0.6,0-1.2-0.5-1.2-1.2c0-0.6,0.5-1.2,1.2-1.2h6c0.6,0,1.2,0.5,1.2,1.2
				C45.1,211,44.6,211.5,43.9,211.5z"/>
		</g>
		<g>
			<path class="st2" d="M43.9,221.3H31c-0.6,0-1.2-0.5-1.2-1.2c0-0.6,0.5-1.2,1.2-1.2h12.9c0.6,0,1.2,0.5,1.2,1.2
				C45.1,220.8,44.6,221.3,43.9,221.3z"/>
		</g>
		<g>
			<path class="st2" d="M43.9,231.1h-6c-0.6,0-1.2-0.5-1.2-1.2c0-0.6,0.5-1.2,1.2-1.2h6c0.6,0,1.2,0.5,1.2,1.2
				C45.1,230.6,44.6,231.1,43.9,231.1z"/>
		</g>
		<g>
			<path class="st2" d="M43.9,241.2H31c-0.6,0-1.2-0.5-1.2-1.2c0-0.6,0.5-1.2,1.2-1.2h12.9c0.6,0,1.2,0.5,1.2,1.2
				C45.1,240.7,44.6,241.2,43.9,241.2z"/>
		</g>
		<g>
			<path class="st2" d="M43.9,251.1h-6c-0.6,0-1.2-0.5-1.2-1.2c0-0.6,0.5-1.2,1.2-1.2h6c0.6,0,1.2,0.5,1.2,1.2
				C45.1,250.6,44.6,251.1,43.9,251.1z"/>
		</g>
		<g>
			<path class="st2" d="M25.4,256.3c-2.1,0-3.8-1.7-3.8-3.8c0-2.1,1.7-3.8,3.8-3.8c2.1,0,3.8,1.7,3.8,3.8
				C29.3,254.5,27.6,256.3,25.4,256.3z M25.4,250.9c-0.9,0-1.5,0.6-1.5,1.5c0,0.9,0.6,1.5,1.5,1.5c0.9,0,1.5-0.6,1.5-1.5
				C26.9,251.5,26.3,250.9,25.4,250.9z"/>
		</g>
	</g>
	<g>
		<g>
			<path class="st2" d="M31.2,85.9c-0.6,0-1.2-0.5-1.2-1.2v-2c0-0.6,0.5-1.2,1.2-1.2s1.2,0.5,1.2,1.2v2
				C32.4,85.5,31.8,85.9,31.2,85.9z"/>
		</g>
		<g>
			<path class="st2" d="M31.2,74.3c-0.6,0-1.2-0.5-1.2-1.2v-5.2c0-0.6,0.5-1.2,1.2-1.2s1.2,0.5,1.2,1.2V73
				C32.4,73.7,31.8,74.3,31.2,74.3z"/>
		</g>
		<g>
			<path class="st2" d="M31.2,59.5c-0.6,0-1.2-0.5-1.2-1.2V56c0-0.6,0.5-1.2,1.2-1.2h2c0.6,0,1.2,0.5,1.2,1.2s-0.5,1.2-1.2,1.2h-0.9
				v1C32.4,59,31.8,59.5,31.2,59.5z"/>
		</g>
		<g>
			<path class="st2" d="M151.9,57.3h-4.2c-0.6,0-1.2-0.5-1.2-1.2s0.5-1.2,1.2-1.2h4.2c0.6,0,1.2,0.5,1.2,1.2S152.6,57.3,151.9,57.3z
				 M140.1,57.3h-4.2c-0.6,0-1.2-0.5-1.2-1.2s0.5-1.2,1.2-1.2h4.2c0.6,0,1.2,0.5,1.2,1.2S140.8,57.3,140.1,57.3z M128.2,57.3H124
				c-0.6,0-1.2-0.5-1.2-1.2s0.5-1.2,1.2-1.2h4.2c0.6,0,1.2,0.5,1.2,1.2S128.8,57.3,128.2,57.3z M116.4,57.3h-4.3
				c-0.6,0-1.2-0.5-1.2-1.2s0.5-1.2,1.2-1.2h4.2c0.6,0,1.2,0.5,1.2,1.2S117.1,57.3,116.4,57.3z M104.5,57.3h-4.2
				c-0.6,0-1.2-0.5-1.2-1.2s0.5-1.2,1.2-1.2h4.2c0.6,0,1.2,0.5,1.2,1.2S105.1,57.3,104.5,57.3z M92.7,57.3h-4.2
				c-0.6,0-1.2-0.5-1.2-1.2s0.5-1.2,1.2-1.2h4.2c0.6,0,1.2,0.5,1.2,1.2S93.3,57.3,92.7,57.3z M80.8,57.3h-4.2
				c-0.6,0-1.2-0.5-1.2-1.2s0.5-1.2,1.2-1.2h4.2c0.6,0,1.2,0.5,1.2,1.2S81.4,57.3,80.8,57.3z M68.9,57.3h-4.2
				c-0.6,0-1.2-0.5-1.2-1.2s0.5-1.2,1.2-1.2h4.2c0.6,0,1.2,0.5,1.2,1.2S69.6,57.3,68.9,57.3z M57.1,57.3h-4.2
				c-0.6,0-1.2-0.5-1.2-1.2s0.5-1.2,1.2-1.2h4.2c0.6,0,1.2,0.5,1.2,1.2S57.7,57.3,57.1,57.3z M45.2,57.3H41c-0.6,0-1.2-0.5-1.2-1.2
				s0.5-1.2,1.2-1.2h4.2c0.6,0,1.2,0.5,1.2,1.2S45.9,57.3,45.2,57.3z"/>
		</g>
		<g>
			<path class="st2" d="M162.1,57.3h-2.2c-0.6,0-1.2-0.5-1.2-1.2s0.5-1.2,1.2-1.2h2.2c0.6,0,1.2,0.5,1.2,1.2S162.7,57.3,162.1,57.3z
				"/>
		</g>
	</g>
	<g>
		<g>
			<path class="st2" d="M268.9,193.9c-0.6,0-1.2-0.5-1.2-1.2v-2.2c0-0.6,0.5-1.2,1.2-1.2c0.6,0,1.2,0.5,1.2,1.2v2.2
				C270,193.5,269.5,193.9,268.9,193.9z"/>
		</g>
		<g>
			<path class="st2" d="M268.9,250.8c-0.6,0-1.2-0.5-1.2-1.2v-4.1c0-0.6,0.5-1.2,1.2-1.2c0.6,0,1.2,0.5,1.2,1.2v4.1
				C270,250.2,269.5,250.8,268.9,250.8z M268.9,239.4c-0.6,0-1.2-0.5-1.2-1.2V234c0-0.6,0.5-1.2,1.2-1.2c0.6,0,1.2,0.5,1.2,1.2v4.1
				C270,238.9,269.5,239.4,268.9,239.4z M268.9,228.1c-0.6,0-1.2-0.5-1.2-1.2v-4.1c0-0.6,0.5-1.2,1.2-1.2c0.6,0,1.2,0.5,1.2,1.2v4.1
				C270,227.5,269.5,228.1,268.9,228.1z M268.9,216.7c-0.6,0-1.2-0.5-1.2-1.2v-4.1c0-0.6,0.5-1.2,1.2-1.2c0.6,0,1.2,0.5,1.2,1.2v4.1
				C270,216.2,269.5,216.7,268.9,216.7z M268.9,205.4c-0.6,0-1.2-0.5-1.2-1.2V200c0-0.6,0.5-1.2,1.2-1.2c0.6,0,1.2,0.5,1.2,1.2v4.1
				C270,204.9,269.5,205.4,268.9,205.4z"/>
		</g>
		<g>
			<path class="st2" d="M268.9,260.6h-2.2c-0.6,0-1.2-0.5-1.2-1.2c0-0.6,0.5-1.2,1.2-1.2h1v-0.9c0-0.6,0.5-1.2,1.2-1.2
				c0.6,0,1.2,0.5,1.2,1.2v2C270,260,269.5,260.6,268.9,260.6z"/>
		</g>
		<g>
			<path class="st2" d="M259.2,260.6H255c-0.6,0-1.2-0.5-1.2-1.2c0-0.6,0.5-1.2,1.2-1.2h4.2c0.6,0,1.2,0.5,1.2,1.2
				C260.3,260,259.8,260.6,259.2,260.6z M247.5,260.6h-4.2c-0.6,0-1.2-0.5-1.2-1.2c0-0.6,0.5-1.2,1.2-1.2h4.2c0.6,0,1.2,0.5,1.2,1.2
				C248.6,260,248.1,260.6,247.5,260.6z M235.9,260.6h-4.2c-0.6,0-1.2-0.5-1.2-1.2c0-0.6,0.5-1.2,1.2-1.2h4.2c0.6,0,1.2,0.5,1.2,1.2
				C237,260,236.5,260.6,235.9,260.6z M224.1,260.6h-4.2c-0.6,0-1.2-0.5-1.2-1.2c0-0.6,0.5-1.2,1.2-1.2h4.2c0.6,0,1.2,0.5,1.2,1.2
				C225.3,260,224.8,260.6,224.1,260.6z M212.4,260.6h-4.2c-0.6,0-1.2-0.5-1.2-1.2c0-0.6,0.5-1.2,1.2-1.2h4.2c0.6,0,1.2,0.5,1.2,1.2
				C213.6,260,213.1,260.6,212.4,260.6z M200.7,260.6h-4.2c-0.6,0-1.2-0.5-1.2-1.2c0-0.6,0.5-1.2,1.2-1.2h4.2c0.6,0,1.2,0.5,1.2,1.2
				C202,260,201.3,260.6,200.7,260.6z M189.1,260.6h-4.2c-0.6,0-1.2-0.5-1.2-1.2c0-0.6,0.5-1.2,1.2-1.2h4.2c0.6,0,1.2,0.5,1.2,1.2
				C190.3,260,189.7,260.6,189.1,260.6z M177.4,260.6h-4.2c-0.6,0-1.2-0.5-1.2-1.2c0-0.6,0.5-1.2,1.2-1.2h4.2c0.6,0,1.2,0.5,1.2,1.2
				C178.5,260,178,260.6,177.4,260.6z M165.7,260.6h-4.2c-0.6,0-1.2-0.5-1.2-1.2c0-0.6,0.5-1.2,1.2-1.2h4.2c0.6,0,1.2,0.5,1.2,1.2
				C166.8,260,166.3,260.6,165.7,260.6z"/>
		</g>
		<g>
			<path class="st2" d="M154.2,260.6h-2c-0.6,0-1.2-0.5-1.2-1.2v-2c0-0.6,0.5-1.2,1.2-1.2c0.6,0,1.2,0.5,1.2,1.2v0.9h0.9
				c0.6,0,1.2,0.5,1.2,1.2C155.3,260,154.8,260.6,154.2,260.6z"/>
		</g>
		<g>
			<path class="st2" d="M152.1,252.7c-0.6,0-1.2-0.5-1.2-1.2v-3.2c0-0.6,0.5-1.2,1.2-1.2c0.6,0,1.2,0.5,1.2,1.2v3.2
				C153.3,252,152.8,252.7,152.1,252.7z"/>
		</g>
		<g>
			<path class="st2" d="M152.1,243.5c-0.6,0-1.2-0.5-1.2-1.2V240c0-0.6,0.5-1.2,1.2-1.2c0.6,0,1.2,0.5,1.2,1.2v2.2
				C153.3,243,152.8,243.5,152.1,243.5z"/>
		</g>
	</g>
	<g>
		<g>
			<path class="st2" d="M58.5,195.1c-0.6,0-1.2-0.5-1.2-1.2v-7.6c0-0.6,0.5-1.2,1.2-1.2c0.7,0,1.2,0.5,1.2,1.2v7.6
				C59.6,194.4,59.1,195.1,58.5,195.1z"/>
		</g>
		<g>
			<path class="st2" d="M62.3,191.3h-7.6c-0.6,0-1.2-0.5-1.2-1.2c0-0.6,0.5-1.2,1.2-1.2h7.6c0.6,0,1.2,0.5,1.2,1.2
				C63.6,190.7,63.1,191.3,62.3,191.3z"/>
		</g>
	</g>
	<g>
		<g>
			<path class="st2" d="M102.3,79.1c-0.6,0-1.2-0.5-1.2-1.2v-7.6c0-0.6,0.5-1.2,1.2-1.2c0.7,0,1.2,0.5,1.2,1.2v7.6
				C103.5,78.6,103,79.1,102.3,79.1z"/>
		</g>
		<g>
			<path class="st2" d="M106.3,75.4h-7.6c-0.6,0-1.2-0.5-1.2-1.2c0-0.7,0.5-1.2,1.2-1.2h7.6c0.6,0,1.2,0.5,1.2,1.2
				C107.5,74.9,106.9,75.4,106.3,75.4z"/>
		</g>
	</g>
	<g>
		<g>
			<path class="st2" d="M250,247.2c-0.6,0-1.2-0.5-1.2-1.2v-7.6c0-0.6,0.5-1.2,1.2-1.2c0.6,0,1.2,0.5,1.2,1.2v7.6
				C251.2,246.7,250.6,247.2,250,247.2z"/>
		</g>
		<g>
			<path class="st2" d="M254,243.5h-7.6c-0.6,0-1.2-0.5-1.2-1.2c0-0.6,0.5-1.2,1.2-1.2h7.6c0.6,0,1.2,0.5,1.2,1.2
				C255.1,243,254.6,243.5,254,243.5z"/>
		</g>
	</g>
	<g>
		<path class="st2" d="M74.8,257.6c0-1,0.7-1.7,1.6-1.7l0,0c1,0,1.7,0.7,1.7,1.6l0,0c0,1-0.7,1.7-1.6,1.7l0,0l0,0l0,0
			C75.6,259.2,74.8,258.5,74.8,257.6z M69.9,256.6L69.9,256.6c-0.6-0.6-0.7-1.7,0-2.4l0,0c0.6-0.6,1.7-0.7,2.4,0l0,0
			c0.6,0.6,0.7,1.7,0,2.4l0,0c-0.4,0.4-0.7,0.5-1.2,0.5l0,0C70.6,257.1,70.1,257,69.9,256.6z M80.8,256.4c-0.6-0.6-0.7-1.7-0.1-2.4
			l0,0c0.6-0.6,1.7-0.7,2.4-0.1l0,0c0.6,0.6,0.7,1.7,0.1,2.4l0,0c-0.4,0.4-0.7,0.5-1.2,0.5l0,0C81.6,256.9,81.2,256.8,80.8,256.4z
			 M67,250.1c0-1,0.7-1.7,1.6-1.7l0,0c1,0,1.7,0.7,1.7,1.7l0,0c0,1-0.7,1.7-1.6,1.7l0,0l0,0l0,0C67.8,251.8,67,250.9,67,250.1z
			 M82.4,249.7c0-1,0.7-1.7,1.6-1.7l0,0c1,0,1.7,0.6,1.7,1.6l0,0c0,1-0.7,1.7-1.6,1.7l0,0c0,0,0,0-0.1,0l0,0
			C83.2,251.3,82.4,250.6,82.4,249.7z M69.6,245.7c-0.6-0.6-0.6-1.7,0-2.4l0,0c0.6-0.6,1.7-0.6,2.4,0l0,0c0.6,0.6,0.6,1.7,0,2.4l0,0
			l0,0l0,0c-0.4,0.4-0.7,0.5-1.2,0.5l0,0C70.5,246.2,70,246.1,69.6,245.7z M80.4,245.5c-0.7-0.6-0.7-1.7-0.1-2.4l0,0
			c0.6-0.7,1.7-0.7,2.4-0.1l0,0c0.7,0.6,0.7,1.7,0.1,2.4l0,0c-0.4,0.4-0.7,0.5-1.2,0.5l0,0C81.2,246,80.8,245.7,80.4,245.5z
			 M74.7,242.2c0-1,0.7-1.7,1.7-1.7l0,0c0.9,0,1.6,0.7,1.6,1.7l0,0c0,1-0.7,1.7-1.7,1.7l0,0C75.5,243.9,74.7,243.1,74.7,242.2z"/>
	</g>
	<g>
		<path class="st2" d="M60.8,82c0-1,0.7-1.7,1.6-1.7l0,0c1,0,1.7,0.7,1.7,1.6l0,0c0,1-0.7,1.7-1.6,1.7l0,0l0,0l0,0
			C61.6,83.6,60.8,82.8,60.8,82z M55.7,81c-0.6-0.6-0.7-1.7,0-2.4l0,0c0.6-0.6,1.7-0.7,2.4,0l0,0l0,0l0,0c0.6,0.6,0.7,1.7,0,2.4l0,0
			c-0.4,0.4-0.7,0.5-1.2,0.5l0,0C56.6,81.5,56.1,81.4,55.7,81z M66.8,80.7c-0.6-0.6-0.7-1.7-0.1-2.4l0,0l0,0l0,0
			c0.6-0.6,1.7-0.7,2.4-0.1l0,0c0.6,0.6,0.7,1.7,0.1,2.4l0,0c-0.4,0.4-0.7,0.5-1.2,0.5l0,0C67.5,81.2,67,81.1,66.8,80.7z M52.9,74.4
			c0-1,0.7-1.7,1.6-1.7l0,0c1,0,1.7,0.7,1.7,1.7l0,0c0,1-0.7,1.7-1.6,1.7l0,0l0,0l0,0C53.6,76.1,52.9,75.3,52.9,74.4z M68.3,74
			c0-1,0.7-1.7,1.6-1.7l0,0c1,0,1.7,0.6,1.7,1.6l0,0c0,1-0.7,1.7-1.6,1.7l0,0c0,0,0,0-0.1,0l0,0C69.1,75.6,68.4,74.9,68.3,74z
			 M55.6,70.1c-0.6-0.6-0.6-1.7,0-2.4l0,0c0.6-0.6,1.7-0.6,2.4,0l0,0c0.6,0.6,0.6,1.7,0,2.4l0,0c-0.4,0.4-0.7,0.5-1.2,0.5l0,0
			C56.4,70.6,56,70.3,55.6,70.1z M66.4,69.8L66.4,69.8L66.4,69.8c-0.7-0.6-0.7-1.7-0.1-2.4l0,0c0.6-0.7,1.7-0.7,2.4-0.1l0,0
			c0.7,0.6,0.7,1.7,0.1,2.4l0,0c-0.4,0.4-0.7,0.5-1.2,0.5l0,0C67.2,70.3,66.7,70.1,66.4,69.8z M60.6,66.6c0-1,0.7-1.7,1.7-1.7l0,0
			c1,0,1.7,0.7,1.7,1.7l0,0c0,1-0.7,1.7-1.7,1.7l0,0C61.3,68.2,60.6,67.5,60.6,66.6z"/>
	</g>
</g>
<g id="GRAPHIC">
</g>
</svg>
